name rise30.6535peak61.5555fall82.9339.mot
datacolumns 19
datarows 29
range 0.89499800000000 0.94166400000000
endheader
time	ground_force1_vx	ground_force1_vy	ground_force1_vz	ground_force1_px	ground_force1_py	ground_force1_pz	ground_force2_vx	ground_force2_vy	ground_force2_vz	ground_force2_px	ground_force2_py	ground_force2_pz	ground_torque1_x	ground_torque1_y	ground_torque1_z	ground_torque2_x	ground_torque2_y	ground_torque2_z	
0.89499800000000	-6.52855200000000	46.41439700000000	-14.98974900000000	0.30174400000000	0.00000000000000	0.06482200000000	-54.56475700000000	796.98926700000004	-48.74100000000000	0.11282900000000	0.00000000000000	-0.10024000000000	0.00000000000000	-10.16708000000000	0.00000000000000	0.00000000000000	-19.51920800000000	0.00000000000000	
0.89666400000000	-6.87746500000000	53.06551200000000	-16.46044600000000	0.30630500000000	0.00000000000000	0.06588300000000	-55.38970800000000	794.30962299999999	-48.41527100000000	0.11202600000000	0.00000000000000	-0.10014300000000	0.00000000000000	-11.25651500000000	0.00000000000000	0.00000000000000	-19.55365200000000	0.00000000000000	
0.89833000000000	-7.06953200000000	59.65740500000000	-17.73760700000000	0.31058800000000	0.00000000000000	0.06687200000000	-56.24114400000000	791.51543800000002	-48.07194100000000	0.11122400000000	0.00000000000000	-0.10004200000000	0.00000000000000	-12.22853700000000	0.00000000000000	0.00000000000000	-19.59322200000000	0.00000000000000	
0.89999000000000	-7.09547000000000	66.12553699999999	-18.79892600000000	0.31462500000000	0.00000000000000	0.06779800000000	-57.11789200000000	788.60328300000003	-47.71052800000000	0.11042400000000	0.00000000000000	-0.09993800000000	0.00000000000000	-13.06562700000000	0.00000000000000	0.00000000000000	-19.63766600000000	0.00000000000000	
0.90165600000000	-6.95323600000000	72.43086500000000	-19.63444300000000	0.31844300000000	0.00000000000000	0.06866700000000	-58.01862400000000	785.56964800000003	-47.33055800000000	0.10962800000000	0.00000000000000	-0.09983000000000	0.00000000000000	-13.75864500000000	0.00000000000000	0.00000000000000	-19.68669300000000	0.00000000000000	
0.90332200000000	-6.64727400000000	78.55924000000000	-20.24560300000000	0.32206500000000	0.00000000000000	0.06948600000000	-58.94185600000000	782.41096100000004	-46.93157700000000	0.10883500000000	0.00000000000000	-0.09972000000000	0.00000000000000	-14.30638000000000	0.00000000000000	0.00000000000000	-19.73998200000000	0.00000000000000	
0.90498900000000	-6.18735800000000	84.51885600000000	-20.64355600000000	0.32550900000000	0.00000000000000	0.07026000000000	-59.88595100000000	779.12359700000002	-46.51314900000000	0.10804600000000	0.00000000000000	-0.09960600000000	0.00000000000000	-14.71452300000000	0.00000000000000	0.00000000000000	-19.79717800000000	0.00000000000000	
0.90665900000000	-5.58719500000000	90.33628899999999	-20.84693400000000	0.32879000000000	0.00000000000000	0.07099300000000	-60.84912300000000	775.70389200000000	-46.07486100000000	0.10726200000000	0.00000000000000	-0.09948900000000	0.00000000000000	-14.99424300000000	0.00000000000000	0.00000000000000	-19.85789500000000	0.00000000000000	
0.90832800000000	-4.86295400000000	96.05171799999999	-20.87941500000000	0.33192100000000	0.00000000000000	0.07169000000000	-61.82943600000000	772.14815699999997	-45.61633000000000	0.10648300000000	0.00000000000000	-0.09936800000000	0.00000000000000	-15.16055700000000	0.00000000000000	0.00000000000000	-19.92171400000000	0.00000000000000	
0.90999600000000	-4.03184100000000	101.71384100000000	-20.76729000000000	0.33491400000000	0.00000000000000	0.07235400000000	-62.82481000000000	768.45269099999996	-45.13720200000000	0.10571000000000	0.00000000000000	-0.09924300000000	0.00000000000000	-15.23065800000000	0.00000000000000	0.00000000000000	-19.98819100000000	0.00000000000000	
0.91166400000000	-3.11084100000000	107.37497700000000	-20.53723000000000	0.33777800000000	0.00000000000000	0.07298700000000	-63.83302700000000	764.61379599999998	-44.63716000000000	0.10494400000000	0.00000000000000	-0.09911500000000	0.00000000000000	-15.22235400000000	0.00000000000000	0.00000000000000	-20.05684800000000	0.00000000000000	
0.91333000000000	-2.11568700000000	113.08669100000000	-20.21441500000000	0.34052000000000	0.00000000000000	0.07359100000000	-64.85173200000000	760.62779599999999	-44.11592700000000	0.10418500000000	0.00000000000000	-0.09898400000000	0.00000000000000	-15.15271700000000	0.00000000000000	0.00000000000000	-20.12718400000000	0.00000000000000	
0.91499000000000	-1.06010800000000	118.89621699999999	-19.82108900000000	0.34314800000000	0.00000000000000	0.07417000000000	-65.87844200000001	756.49105099999997	-43.57326900000000	0.10343400000000	0.00000000000000	-0.09884900000000	0.00000000000000	-15.03701800000000	0.00000000000000	0.00000000000000	-20.19867300000000	0.00000000000000	
0.91665600000000	0.04464500000000	124.84379000000000	-19.37559300000000	0.34566600000000	0.00000000000000	0.07472600000000	-66.91055200000000	752.19997300000000	-43.00899900000000	0.10269100000000	0.00000000000000	-0.09871000000000	0.00000000000000	-14.88797700000000	0.00000000000000	0.00000000000000	-20.27076300000000	0.00000000000000	
0.91832200000000	1.18999500000000	130.96095500000001	-18.89185600000000	0.34808100000000	0.00000000000000	0.07525800000000	-67.94533900000000	747.75104799999997	-42.42298300000000	0.10195600000000	0.00000000000000	-0.09856700000000	0.00000000000000	-14.71534700000000	0.00000000000000	0.00000000000000	-20.34288300000000	0.00000000000000	
0.91999200000000	2.37000500000000	137.26978800000001	-18.37930800000000	0.35039500000000	0.00000000000000	0.07577100000000	-68.97997500000000	743.14085100000000	-41.81513700000000	0.10122900000000	0.00000000000000	-0.09842100000000	0.00000000000000	-14.52578400000000	0.00000000000000	0.00000000000000	-20.41444300000000	0.00000000000000	
0.92166000000000	3.58115100000000	143.78292999999999	-17.84314100000000	0.35261200000000	0.00000000000000	0.07626300000000	-70.01153100000001	738.36606900000004	-41.18543700000000	0.10051200000000	0.00000000000000	-0.09827000000000	0.00000000000000	-14.32297600000000	0.00000000000000	0.00000000000000	-20.48483300000000	0.00000000000000	
0.92332400000000	4.82195700000000	150.50428199999999	-17.28484000000000	0.35473500000000	0.00000000000000	0.07673800000000	-71.03698500000000	733.42351799999994	-40.53392000000000	0.09980500000000	0.00000000000000	-0.09811600000000	0.00000000000000	-14.10797900000000	0.00000000000000	0.00000000000000	-20.55343000000000	0.00000000000000	
0.92499600000000	6.09253400000000	157.43018300000000	-16.70288500000000	0.35676700000000	0.00000000000000	0.07719500000000	-72.05323799999999	728.31016399999999	-39.86068500000000	0.09910600000000	0.00000000000000	-0.09795900000000	0.00000000000000	-13.87968300000000	0.00000000000000	0.00000000000000	-20.61959900000000	0.00000000000000	
0.92666100000000	7.39410000000000	164.55089899999999	-16.09355700000000	0.35871000000000	0.00000000000000	0.07763700000000	-73.05711400000000	723.02314600000000	-39.16589500000000	0.09841800000000	0.00000000000000	-0.09779700000000	0.00000000000000	-13.63535700000000	0.00000000000000	0.00000000000000	-20.68269300000000	0.00000000000000	
0.92832800000000	8.72849200000000	171.85225399999999	-15.45174800000000	0.36056500000000	0.00000000000000	0.07806300000000	-74.04537800000000	717.55979500000001	-38.44978200000000	0.09773900000000	0.00000000000000	-0.09763200000000	0.00000000000000	-13.37122800000000	0.00000000000000	0.00000000000000	-20.74205800000000	0.00000000000000	
0.92999200000000	10.09772500000000	179.31724500000001	-14.77173000000000	0.36233400000000	0.00000000000000	0.07847400000000	-75.01474399999999	711.91765399999997	-37.71264600000000	0.09707000000000	0.00000000000000	-0.09746300000000	0.00000000000000	-13.08302300000000	0.00000000000000	0.00000000000000	-20.79703500000000	0.00000000000000	
0.93165700000000	11.50361900000000	186.92754900000000	-14.04783100000000	0.36401800000000	0.00000000000000	0.07887200000000	-75.96188600000001	706.09450000000004	-36.95485900000000	0.09641100000000	0.00000000000000	-0.09729000000000	0.00000000000000	-12.76645800000000	0.00000000000000	0.00000000000000	-20.84696300000000	0.00000000000000	
0.93332300000000	12.94750700000000	194.66480200000001	-13.27497700000000	0.36561900000000	0.00000000000000	0.07925700000000	-76.88344800000000	700.08836399999996	-36.17686200000000	0.09576200000000	0.00000000000000	-0.09711400000000	0.00000000000000	-12.41764000000000	0.00000000000000	0.00000000000000	-20.89117800000000	0.00000000000000	
0.93499100000000	14.43002800000000	202.51162400000001	-12.44909900000000	0.36713600000000	0.00000000000000	0.07962800000000	-77.77605699999999	693.89754500000004	-35.37917200000000	0.09512300000000	0.00000000000000	-0.09693400000000	0.00000000000000	-12.03337100000000	0.00000000000000	0.00000000000000	-20.92902300000000	0.00000000000000	
0.93666400000000	15.95101000000000	210.45235900000000	-11.56738800000000	0.36857200000000	0.00000000000000	0.07998800000000	-78.63633500000000	687.52062999999998	-34.56237600000000	0.09449300000000	0.00000000000000	-0.09675000000000	0.00000000000000	-11.61134600000000	0.00000000000000	0.00000000000000	-20.95984200000000	0.00000000000000	
0.93832700000000	17.50943100000000	218.47352400000000	-10.62842000000000	0.36992700000000	0.00000000000000	0.08033600000000	-79.46091199999999	680.95650799999999	-33.72713700000000	0.09387300000000	0.00000000000000	-0.09656200000000	0.00000000000000	-11.15025600000000	0.00000000000000	0.00000000000000	-20.98299100000000	0.00000000000000	
0.94000400000000	19.10344800000000	226.56399900000000	-9.63215800000000	0.37120000000000	0.00000000000000	0.08067300000000	-80.24643500000001	674.20438300000001	-32.87418900000000	0.09326100000000	0.00000000000000	-0.09637100000000	0.00000000000000	-10.64980100000000	0.00000000000000	0.00000000000000	-20.99783400000000	0.00000000000000	
0.94166400000000	20.73047100000000	234.71500000000000	-8.57986100000000	0.37239300000000	0.00000000000000	0.08099900000000	-80.98958500000001	667.26377900000000	-32.00434100000000	0.09265800000000	0.00000000000000	-0.09617700000000	0.00000000000000	-10.11063200000000	0.00000000000000	0.00000000000000	-21.00375200000000	0.00000000000000	
